<svg width="17" height="17" viewBox="0 0 17 17" fill="none" xmlns="http://www.w3.org/2000/svg">
<path d="M10.611 4.97485V2.14152C10.611 1.95365 10.6857 1.77349 10.8185 1.64065C10.9513 1.50781 11.1315 1.43318 11.3194 1.43318C11.5072 1.43318 11.6874 1.50781 11.8202 1.64065C11.9531 1.77349 12.0277 1.95365 12.0277 2.14152V3.99098C12.474 3.54189 15.3576 0.643392 15.7769 0.224058C15.8423 0.156405 15.9204 0.102443 16.0068 0.0653198C16.0933 0.0281968 16.1862 0.00865653 16.2803 0.00783924C16.3743 0.00702196 16.4676 0.024944 16.5546 0.0605596C16.6417 0.0961753 16.7208 0.148771 16.7873 0.215279C16.8538 0.281786 16.9064 0.360873 16.942 0.447924C16.9776 0.534976 16.9955 0.628249 16.9947 0.722301C16.9939 0.816353 16.9744 0.9093 16.9372 0.99572C16.9001 1.08214 16.8462 1.1603 16.7785 1.22564C16.3592 1.64498 13.4904 4.53002 13.047 4.97485H14.861C15.0489 4.97485 15.2291 5.04948 15.3619 5.18232C15.4947 5.31515 15.5694 5.49532 15.5694 5.68318C15.5694 5.87105 15.4947 6.05121 15.3619 6.18405C15.2291 6.31689 15.0489 6.39152 14.861 6.39152H12.0277C11.652 6.39152 11.2917 6.24226 11.026 5.97659C10.7603 5.71091 10.611 5.35057 10.611 4.97485ZM16.345 11.8733C16.7555 12.2849 16.986 12.8425 16.986 13.4239C16.986 14.0052 16.7555 14.5628 16.345 14.9744L15.699 15.7181C9.89704 21.2701 -4.21862 7.15864 1.249 1.33898L2.06359 0.630642C2.47558 0.231528 3.02814 0.010665 3.60173 0.0158349C4.17532 0.0210047 4.72381 0.251792 5.12854 0.658267C5.1505 0.679517 6.46234 2.38518 6.46234 2.38518C6.85045 2.79498 7.06639 3.33816 7.0656 3.90257C7.06481 4.46699 6.84734 5.00956 6.45809 5.41827L5.63784 6.4496C6.09187 7.55249 6.75931 8.55483 7.60182 9.39904C8.44433 10.2433 9.44532 10.9127 10.5473 11.369L11.585 10.5438C11.9929 10.1535 12.5354 9.93529 13.1 9.9345C13.6645 9.93371 14.2077 10.1504 14.6167 10.5395C14.6167 10.5395 16.323 11.8521 16.345 11.8733V11.8733ZM15.371 12.9032C15.371 12.9032 13.676 11.5985 13.654 11.5772C13.5081 11.4325 13.3109 11.3514 13.1054 11.3514C12.8999 11.3514 12.7028 11.4325 12.5568 11.5772C12.5377 11.5956 11.109 12.7346 11.109 12.7346C11.0127 12.8113 10.8981 12.8615 10.7765 12.8804C10.6549 12.8993 10.5305 12.8861 10.4155 12.8423C8.98713 12.3109 7.68968 11.4785 6.61115 10.4017C5.53262 9.32487 4.69821 8.02875 4.1645 6.60118C4.11718 6.48463 4.10176 6.35758 4.11981 6.23309C4.13786 6.1086 4.18874 5.99116 4.26721 5.89285C4.26721 5.89285 5.40621 4.46627 5.42534 4.44785C5.57003 4.30192 5.65121 4.10475 5.65121 3.89925C5.65121 3.69375 5.57003 3.49657 5.42534 3.35064C5.40409 3.32939 4.09934 1.63293 4.09934 1.63293C3.95122 1.50013 3.75792 1.429 3.55905 1.43414C3.36018 1.43927 3.17081 1.52028 3.02975 1.66056L2.21517 2.36889C-1.78125 7.17352 10.4531 18.7293 14.6627 14.7527L15.3087 14.0082C15.461 13.8685 15.5527 13.6748 15.5644 13.4684C15.576 13.262 15.5067 13.0592 15.371 12.9032V12.9032Z" fill="#20408D"/>
</svg>
